<svg width="458" height="295" viewBox="0 0 458 295" fill="none" xmlns="http://www.w3.org/2000/svg">
<g clip-path="url(#clip0_1765_11824)" filter="url(#filter0_d_1765_11824)">
<path d="M37.3364 140.358C39.3311 140.608 40.3792 142.424 39.703 144.459C39.1621 145.992 38.4521 146.086 25.2326 146.086C11.6411 146.086 11.844 146.118 11.1002 144.083C10.6945 142.862 10.9987 141.861 12.1145 140.921C12.8245 140.327 13.3654 140.295 24.5902 140.264C31.014 140.233 36.7616 140.295 37.3364 140.358Z" fill="black"/>
<path d="M153.132 141.359C154.383 142.549 154.451 144.114 153.301 145.366L152.49 146.243L140.521 146.337C126.997 146.462 126.287 146.368 125.51 144.646C125.104 143.739 125.07 143.3 125.375 142.455C126.085 140.483 126.321 140.452 139.913 140.452H152.152L153.132 141.359Z" fill="black"/>
<path d="M113.846 141.266C115.198 142.299 115.299 144.051 114.082 145.366L113.271 146.243L101.302 146.337C88.1841 146.462 87.1699 146.337 86.3246 144.834C85.716 143.738 85.6822 143.238 86.2232 142.173C87.0346 140.514 87.4741 140.452 100.66 140.452H112.797L113.846 141.266Z" fill="black"/>
<path d="M75.7088 140.921C77.4331 141.798 77.7712 144.145 76.385 145.429C75.5397 146.211 69.8597 146.493 58.3307 146.337L49.9121 146.243L49.1007 145.366C48.0188 144.208 48.0188 142.643 49.1007 141.485L49.9121 140.608L62.3878 140.546C72.6997 140.483 74.9988 140.546 75.7088 140.921Z" fill="black"/>
<path d="M171.052 143.582C172.81 144.052 178.017 145.46 182.682 146.712C192.115 149.248 192.994 149.655 192.994 151.721C192.994 153.255 191.743 154.538 190.289 154.538C189.241 154.538 167.705 148.81 166.454 148.184C165.406 147.683 164.966 146.963 164.932 145.742C164.932 144.396 165.913 143.081 167.096 142.893C167.536 142.8 169.327 143.113 171.052 143.582Z" fill="black"/>
<path d="M207.059 156.792C208.513 157.731 213.077 160.58 217.168 163.115C221.259 165.682 224.944 168.092 225.35 168.53C226.465 169.657 226.398 171.254 225.147 172.412C224.572 172.944 223.794 173.32 223.287 173.32C222.746 173.32 220.752 172.287 218.114 170.628C199.993 159.234 200.77 159.828 200.77 157.825C200.77 156.792 202.089 155.508 203.34 155.289C204.185 155.133 204.794 155.383 207.059 156.792Z" fill="black"/>
<path d="M235.696 177.734C236.035 177.921 240.024 181.991 244.555 186.811C252.432 195.138 252.838 195.639 252.838 196.828C252.838 198.456 251.688 199.614 250.032 199.614C249.423 199.614 248.679 199.426 248.375 199.207C247.09 198.3 232.079 182.147 231.673 181.208C230.557 178.86 233.33 176.45 235.696 177.734Z" fill="black"/>
<path d="M259.159 206.876C260.342 208.128 271.094 227.974 271.094 228.976C271.094 230.353 269.741 231.543 268.119 231.543C266.496 231.543 265.921 230.98 264.095 227.63C263.351 226.253 260.816 221.651 258.449 217.425C256.116 213.168 254.189 209.349 254.189 208.911C254.189 208.473 254.595 207.69 255.068 207.158C256.184 205.937 258.077 205.812 259.159 206.876Z" fill="black"/>
<path d="M273.63 239.995C275.151 240.558 275.016 240.089 278.397 255.302C279.411 259.841 280.223 264.098 280.223 264.755C280.223 265.663 280.02 266.101 279.175 266.728C277.856 267.761 276.673 267.761 275.523 266.665C274.746 265.945 274.441 265.162 273.731 261.75C273.224 259.497 272.075 254.269 271.128 250.074C269.268 241.717 269.268 241.028 271.128 240.151C272.176 239.619 272.649 239.588 273.63 239.995Z" fill="black"/>
<path d="M279.919 276.87L281.068 277.809V290.173V302.538L280.257 303.352C279.682 303.915 279.074 304.166 278.33 304.166C275.152 304.166 275.152 304.197 275.152 289.954V277.903L275.896 277.12C276.335 276.651 277.146 276.212 277.721 276.118C278.6 275.962 279.006 276.118 279.919 276.87Z" fill="black"/>
</g>
<defs>
<filter id="filter0_d_1765_11824" x="0" y="0" width="462" height="295" filterUnits="userSpaceOnUse" color-interpolation-filters="sRGB">
<feFlood flood-opacity="0" result="BackgroundImageFix"/>
<feColorMatrix in="SourceAlpha" type="matrix" values="0 0 0 0 0 0 0 0 0 0 0 0 0 0 0 0 0 0 127 0" result="hardAlpha"/>
<feOffset dy="4"/>
<feGaussianBlur stdDeviation="2"/>
<feComposite in2="hardAlpha" operator="out"/>
<feColorMatrix type="matrix" values="0 0 0 0 0 0 0 0 0 0 0 0 0 0 0 0 0 0 0.25 0"/>
<feBlend mode="normal" in2="BackgroundImageFix" result="effect1_dropShadow_1765_11824"/>
<feBlend mode="normal" in="SourceGraphic" in2="effect1_dropShadow_1765_11824" result="shape"/>
</filter>
<clipPath id="clip0_1765_11824">
<rect width="454" height="287" fill="white" transform="translate(4)"/>
</clipPath>
</defs>
</svg>
