<svg width="39" height="31" viewBox="0 0 39 31" fill="none" xmlns="http://www.w3.org/2000/svg">
<path d="M3.65625 30.7812C2.8125 30.7812 2.07031 30.4609 1.42969 29.8203C0.789062 29.1797 0.46875 28.4375 0.46875 27.5938V3.40625C0.46875 2.53125 0.789062 1.78125 1.42969 1.15625C2.07031 0.53125 2.8125 0.21875 3.65625 0.21875H35.3438C36.2188 0.21875 36.9688 0.53125 37.5938 1.15625C38.2188 1.78125 38.5313 2.53125 38.5313 3.40625V27.5938C38.5313 28.4375 38.2188 29.1797 37.5938 29.8203C36.9688 30.4609 36.2188 30.7812 35.3438 30.7812H3.65625ZM19.5 16.7188L3.65625 6.26562V27.5938H35.3438V6.26562L19.5 16.7188ZM19.5 13.625L35.1563 3.40625H3.89063L19.5 13.625ZM3.65625 6.26562V3.40625V27.5938V6.26562Z" fill="black"/>
</svg>
