<svg width="40" height="40" viewBox="0 0 40 40" fill="none" xmlns="http://www.w3.org/2000/svg">
<path d="M11.6106 0C5.21635 0 0 5.21635 0 11.6106V28.3894C0 34.7837 5.21635 40 11.6106 40H28.3894C34.7837 40 40 34.7837 40 28.3894V11.6106C40 5.21635 34.7837 0 28.3894 0H11.6106ZM11.6106 3.07692H28.3894C33.119 3.07692 36.9231 6.875 36.9231 11.6106V28.3894C36.9231 33.119 33.125 36.9231 28.3894 36.9231H11.6106C6.88101 36.9231 3.07692 33.125 3.07692 28.3894V11.6106C3.07692 6.88101 6.875 3.07692 11.6106 3.07692ZM31.5385 6.15385C30.2644 6.15385 29.2308 7.1875 29.2308 8.46154C29.2308 9.73558 30.2644 10.7692 31.5385 10.7692C32.8125 10.7692 33.8462 9.73558 33.8462 8.46154C33.8462 7.1875 32.8125 6.15385 31.5385 6.15385ZM20 9.23077C14.0685 9.23077 9.23077 14.0685 9.23077 20C9.23077 25.9315 14.0685 30.7692 20 30.7692C25.9315 30.7692 30.7692 25.9315 30.7692 20C30.7692 14.0685 25.9315 9.23077 20 9.23077ZM20 12.3077C24.2668 12.3077 27.6923 15.7332 27.6923 20C27.6923 24.2668 24.2668 27.6923 20 27.6923C15.7332 27.6923 12.3077 24.2668 12.3077 20C12.3077 15.7332 15.7332 12.3077 20 12.3077Z" fill="black"/>
</svg>
