<svg width="39" height="39" viewBox="0 0 39 39" fill="none" xmlns="http://www.w3.org/2000/svg">
<path d="M19.5 0.75C9.14438 0.75 0.75 9.14438 0.75 19.5C0.75 29.8556 9.14438 38.25 19.5 38.25C29.8556 38.25 38.25 29.8556 38.25 19.5C38.25 9.14438 29.8556 0.75 19.5 0.75ZM19.5 4.5C27.7838 4.5 34.5 11.2162 34.5 19.5C34.5 27.7838 27.7838 34.5 19.5 34.5C18.1207 34.5 16.7916 34.2993 15.5229 33.9507C15.922 33.1468 16.2799 32.2996 16.4751 31.5483C16.6907 30.7233 17.5737 27.3589 17.5737 27.3589C18.1475 28.4539 19.8244 29.384 21.6094 29.384C26.9212 29.384 30.75 24.4983 30.75 18.427C30.75 12.6051 26.0007 8.25 19.8882 8.25C12.2851 8.25 8.25 13.3529 8.25 18.9104C8.25 21.4942 9.62484 24.7109 11.8242 25.7366C12.158 25.8922 12.3369 25.8247 12.4138 25.5022C12.4738 25.2566 12.7714 24.0596 12.9045 23.5027C12.9477 23.3264 12.9281 23.1717 12.7837 22.9973C12.0562 22.1142 11.4727 20.4931 11.4727 18.98C11.4727 15.0931 14.4149 11.3335 19.4268 11.3335C23.7543 11.3335 26.7839 14.2834 26.7839 18.5002C26.7839 23.2646 24.3781 26.5642 21.2468 26.5642C19.5181 26.5642 18.2195 25.1368 18.6357 23.3818C19.1326 21.2875 20.0969 19.0264 20.0969 17.5151C20.0969 16.1633 19.3741 15.0359 17.8704 15.0359C16.1022 15.0359 14.6807 16.8626 14.6807 19.3132C14.6807 20.8732 15.208 21.928 15.208 21.928C15.208 21.928 13.4632 29.3097 13.1426 30.6841C12.9837 31.3624 12.9306 32.1659 12.9265 32.9692C7.94207 30.5308 4.5 25.4224 4.5 19.5C4.5 11.2162 11.2162 4.5 19.5 4.5Z" fill="black"/>
</svg>
