<svg width="39" height="31" viewBox="0 0 39 31" fill="none" xmlns="http://www.w3.org/2000/svg">
<path d="M15.0939 23.4087L27.4089 15.5L15.0939 7.59127V23.4087ZM4.43617 30.1875C3.44689 30.1875 2.60954 29.8448 1.92412 29.1594C1.2387 28.474 0.895996 27.6366 0.895996 26.6473V4.35268C0.895996 3.36339 1.2387 2.52604 1.92412 1.84063C2.60954 1.15521 3.44689 0.8125 4.43617 0.8125H34.5642C35.5534 0.8125 36.3908 1.15521 37.0762 1.84063C37.7616 2.52604 38.1043 3.36339 38.1043 4.35268V26.6473C38.1043 27.6366 37.7616 28.474 37.0762 29.1594C36.3908 29.8448 35.5534 30.1875 34.5642 30.1875H4.43617ZM4.43617 27.25H34.5642C34.7149 27.25 34.853 27.1872 34.9783 27.0615C35.104 26.9362 35.1668 26.7981 35.1668 26.6473V4.35268C35.1668 4.20189 35.104 4.06382 34.9783 3.93849C34.853 3.81283 34.7149 3.75 34.5642 3.75H4.43617C4.28538 3.75 4.14732 3.81283 4.02199 3.93849C3.89633 4.06382 3.8335 4.20189 3.8335 4.35268V26.6473C3.8335 26.7981 3.89633 26.9362 4.02199 27.0615C4.14732 27.1872 4.28538 27.25 4.43617 27.25Z" fill="black"/>
</svg>
